<svg width="27" height="34" viewBox="0 0 27 34" fill="none" xmlns="http://www.w3.org/2000/svg">
<path fill-rule="evenodd" clip-rule="evenodd" d="M7.66667 13.5833C7.66667 10.3616 10.2783 7.74992 13.5 7.74992C16.7217 7.74992 19.3333 10.3616 19.3333 13.5833C19.3333 16.8049 16.7217 19.4166 13.5 19.4166C10.2783 19.4166 7.66667 16.8049 7.66667 13.5833ZM13.5 10.6666C11.8892 10.6666 10.5833 11.9724 10.5833 13.5833C10.5833 15.1941 11.8892 16.4999 13.5 16.4999C15.1108 16.4999 16.4167 15.1941 16.4167 13.5833C16.4167 11.9724 15.1108 10.6666 13.5 10.6666Z" fill="#E40037"/>
<path fill-rule="evenodd" clip-rule="evenodd" d="M0.375 13.5833C0.375 6.33451 6.25126 0.458252 13.5 0.458252C20.7487 0.458252 26.625 6.33451 26.625 13.5833C26.625 17.2673 24.9525 20.4961 22.6762 23.4518C20.7741 25.9217 18.3395 28.3352 15.9075 30.7462C15.4474 31.2022 14.9874 31.6582 14.5312 32.1144L13.5 33.1456L12.4688 32.1144C12.0126 31.6582 11.5526 31.2022 11.0925 30.7462C8.66048 28.3352 6.2259 25.9217 4.32376 23.4518C2.04746 20.4961 0.375 17.2673 0.375 13.5833ZM13.5 3.37492C7.86209 3.37492 3.29167 7.94534 3.29167 13.5833C3.29167 16.3426 4.53587 18.9471 6.63457 21.6722C8.40664 23.9732 10.6748 26.223 13.1096 28.6381C13.2393 28.7667 13.3694 28.8958 13.5 29.0254C13.6306 28.8958 13.7607 28.7667 13.8904 28.6381C16.3252 26.223 18.5934 23.9732 20.3654 21.6722C22.4641 18.9471 23.7083 16.3426 23.7083 13.5833C23.7083 7.94534 19.1379 3.37492 13.5 3.37492Z" fill="#E40037"/>
</svg>
